<mxfile host="app.diagrams.net" agent="Mozilla/5.0 (Windows NT 10.0; Win64; x64) AppleWebKit/537.36 (KHTML, like Gecko) Chrome/140.0.0.0 Safari/537.36" version="28.2.5">
  <diagram name="Page-1" id="UF9DtJNkXfFTJp6iqTIU">
    <mxGraphModel dx="826" dy="458" grid="1" gridSize="10" guides="1" tooltips="1" connect="1" arrows="1" fold="1" page="1" pageScale="1" pageWidth="850" pageHeight="1100" math="0" shadow="0">
      <root>
        <mxCell id="0" />
        <mxCell id="1" parent="0" />
        <mxCell id="T-2Mg3BevMmO7YCp2QXU-19" style="edgeStyle=orthogonalEdgeStyle;rounded=0;orthogonalLoop=1;jettySize=auto;html=1;exitX=0.25;exitY=1;exitDx=0;exitDy=0;entryX=0;entryY=0.5;entryDx=0;entryDy=0;fillColor=#a20025;strokeColor=#6F0000;" edge="1" parent="1" source="T-2Mg3BevMmO7YCp2QXU-1" target="T-2Mg3BevMmO7YCp2QXU-18">
          <mxGeometry relative="1" as="geometry" />
        </mxCell>
        <mxCell id="T-2Mg3BevMmO7YCp2QXU-1" value="USER" style="swimlane;fontStyle=1;align=center;verticalAlign=top;childLayout=stackLayout;horizontal=1;startSize=26;horizontalStack=0;resizeParent=1;resizeParentMax=0;resizeLast=0;collapsible=1;marginBottom=0;whiteSpace=wrap;html=1;fillColor=#0050ef;fontColor=#ffffff;strokeColor=#001DBC;gradientColor=light-dark(#000000,#5134FF);" vertex="1" parent="1">
          <mxGeometry x="40" y="40" width="160" height="220" as="geometry" />
        </mxCell>
        <mxCell id="T-2Mg3BevMmO7YCp2QXU-2" value="&lt;font&gt;&lt;b&gt;user_id&lt;/b&gt;&lt;/font&gt;&lt;div&gt;&lt;font&gt;&lt;b&gt;name&lt;/b&gt;&lt;/font&gt;&lt;/div&gt;&lt;div&gt;&lt;font&gt;&lt;b&gt;password&lt;/b&gt;&lt;/font&gt;&lt;/div&gt;&lt;div&gt;&lt;font&gt;&lt;b&gt;address&lt;/b&gt;&lt;/font&gt;&lt;/div&gt;&lt;div&gt;&lt;font&gt;&lt;b&gt;phone_number&lt;/b&gt;&lt;/font&gt;&lt;/div&gt;&lt;div&gt;&lt;font&gt;&lt;b&gt;email&lt;/b&gt;&lt;/font&gt;&lt;/div&gt;&lt;div&gt;&lt;font&gt;&lt;b&gt;books_borrowed&lt;/b&gt;&lt;/font&gt;&lt;/div&gt;&lt;div&gt;&lt;br&gt;&lt;/div&gt;" style="text;strokeColor=#001DBC;fillColor=light-dark(#0050EF,#6DB2FF);align=left;verticalAlign=top;spacingLeft=4;spacingRight=4;overflow=hidden;rotatable=0;points=[[0,0.5],[1,0.5]];portConstraint=eastwest;whiteSpace=wrap;html=1;fontColor=#ffffff;gradientColor=light-dark(#000000,#5134FF);" vertex="1" parent="T-2Mg3BevMmO7YCp2QXU-1">
          <mxGeometry y="26" width="160" height="144" as="geometry" />
        </mxCell>
        <mxCell id="T-2Mg3BevMmO7YCp2QXU-4" value="checkout_book()&lt;div&gt;display_users()&lt;/div&gt;&lt;div&gt;add_user()&lt;/div&gt;" style="text;strokeColor=#001DBC;fillColor=#0050ef;align=left;verticalAlign=top;spacingLeft=4;spacingRight=4;overflow=hidden;rotatable=0;points=[[0,0.5],[1,0.5]];portConstraint=eastwest;whiteSpace=wrap;html=1;fontColor=#ffffff;gradientColor=light-dark(#000000,#5134FF);" vertex="1" parent="T-2Mg3BevMmO7YCp2QXU-1">
          <mxGeometry y="170" width="160" height="50" as="geometry" />
        </mxCell>
        <mxCell id="T-2Mg3BevMmO7YCp2QXU-5" value="BOOK" style="swimlane;fontStyle=1;align=center;verticalAlign=top;childLayout=stackLayout;horizontal=1;startSize=26;horizontalStack=0;resizeParent=1;resizeParentMax=0;resizeLast=0;collapsible=1;marginBottom=0;whiteSpace=wrap;html=1;fillColor=#0050ef;fontColor=#ffffff;strokeColor=#001DBC;gradientColor=light-dark(#000000,#5134FF);" vertex="1" parent="1">
          <mxGeometry x="240" y="40" width="160" height="220" as="geometry" />
        </mxCell>
        <mxCell id="T-2Mg3BevMmO7YCp2QXU-6" value="&lt;div&gt;&lt;b&gt;book_id&lt;br&gt;title&lt;/b&gt;&lt;/div&gt;&lt;div&gt;&lt;b&gt;author_id&lt;/b&gt;&lt;/div&gt;&lt;div&gt;&lt;b&gt;publisher&lt;/b&gt;&lt;/div&gt;&lt;div&gt;&lt;b&gt;year_published&lt;/b&gt;&lt;/div&gt;" style="text;strokeColor=#001DBC;fillColor=light-dark(#0050EF,#6DB2FF);align=left;verticalAlign=top;spacingLeft=4;spacingRight=4;overflow=hidden;rotatable=0;points=[[0,0.5],[1,0.5]];portConstraint=eastwest;whiteSpace=wrap;html=1;fontColor=#ffffff;gradientColor=light-dark(#000000,#5134FF);" vertex="1" parent="T-2Mg3BevMmO7YCp2QXU-5">
          <mxGeometry y="26" width="160" height="144" as="geometry" />
        </mxCell>
        <mxCell id="T-2Mg3BevMmO7YCp2QXU-7" value="add_book()&lt;div&gt;display_books()&lt;/div&gt;" style="text;strokeColor=#001DBC;fillColor=#0050ef;align=left;verticalAlign=top;spacingLeft=4;spacingRight=4;overflow=hidden;rotatable=0;points=[[0,0.5],[1,0.5]];portConstraint=eastwest;whiteSpace=wrap;html=1;fontColor=#ffffff;gradientColor=light-dark(#000000,#5134FF);" vertex="1" parent="T-2Mg3BevMmO7YCp2QXU-5">
          <mxGeometry y="170" width="160" height="50" as="geometry" />
        </mxCell>
        <mxCell id="T-2Mg3BevMmO7YCp2QXU-16" style="edgeStyle=orthogonalEdgeStyle;rounded=0;orthogonalLoop=1;jettySize=auto;html=1;exitX=0.25;exitY=1;exitDx=0;exitDy=0;entryX=0.75;entryY=1;entryDx=0;entryDy=0;fillColor=#d80073;strokeColor=#A50040;" edge="1" parent="1" source="T-2Mg3BevMmO7YCp2QXU-8" target="T-2Mg3BevMmO7YCp2QXU-5">
          <mxGeometry relative="1" as="geometry" />
        </mxCell>
        <mxCell id="T-2Mg3BevMmO7YCp2QXU-8" value="AUTHOR" style="swimlane;fontStyle=1;align=center;verticalAlign=top;childLayout=stackLayout;horizontal=1;startSize=26;horizontalStack=0;resizeParent=1;resizeParentMax=0;resizeLast=0;collapsible=1;marginBottom=0;whiteSpace=wrap;html=1;fillColor=#0050ef;fontColor=#ffffff;strokeColor=#001DBC;gradientColor=light-dark(#000000,#5134FF);" vertex="1" parent="1">
          <mxGeometry x="440" y="40" width="160" height="220" as="geometry" />
        </mxCell>
        <mxCell id="T-2Mg3BevMmO7YCp2QXU-9" value="&lt;b&gt;author_id&lt;/b&gt;&lt;div&gt;&lt;b&gt;name&lt;/b&gt;&lt;/div&gt;&lt;div&gt;&lt;b&gt;affiliation&lt;/b&gt;&lt;/div&gt;&lt;div&gt;&lt;b&gt;country&lt;/b&gt;&lt;/div&gt;&lt;div&gt;&lt;b&gt;phone_number&lt;/b&gt;&lt;/div&gt;&lt;div&gt;&lt;b&gt;email&lt;/b&gt;&lt;/div&gt;&lt;div&gt;&lt;b&gt;&lt;br&gt;&lt;/b&gt;&lt;/div&gt;" style="text;strokeColor=#001DBC;fillColor=light-dark(#0050EF,#6DB2FF);align=left;verticalAlign=top;spacingLeft=4;spacingRight=4;overflow=hidden;rotatable=0;points=[[0,0.5],[1,0.5]];portConstraint=eastwest;whiteSpace=wrap;html=1;fontColor=#ffffff;gradientColor=light-dark(#000000,#5134FF);" vertex="1" parent="T-2Mg3BevMmO7YCp2QXU-8">
          <mxGeometry y="26" width="160" height="144" as="geometry" />
        </mxCell>
        <mxCell id="T-2Mg3BevMmO7YCp2QXU-10" value="add_author()&lt;div&gt;display_authors()&lt;/div&gt;" style="text;strokeColor=#001DBC;fillColor=#0050ef;align=left;verticalAlign=top;spacingLeft=4;spacingRight=4;overflow=hidden;rotatable=0;points=[[0,0.5],[1,0.5]];portConstraint=eastwest;whiteSpace=wrap;html=1;fontColor=#ffffff;gradientColor=light-dark(#000000,#5134FF);" vertex="1" parent="T-2Mg3BevMmO7YCp2QXU-8">
          <mxGeometry y="170" width="160" height="50" as="geometry" />
        </mxCell>
        <mxCell id="T-2Mg3BevMmO7YCp2QXU-14" style="edgeStyle=orthogonalEdgeStyle;rounded=0;orthogonalLoop=1;jettySize=auto;html=1;exitX=0.5;exitY=1;exitDx=0;exitDy=0;entryX=0.496;entryY=0.984;entryDx=0;entryDy=0;entryPerimeter=0;fillColor=#008a00;strokeColor=#005700;" edge="1" parent="1" source="T-2Mg3BevMmO7YCp2QXU-5" target="T-2Mg3BevMmO7YCp2QXU-4">
          <mxGeometry relative="1" as="geometry">
            <Array as="points">
              <mxPoint x="320" y="280" />
              <mxPoint x="119" y="280" />
            </Array>
          </mxGeometry>
        </mxCell>
        <mxCell id="T-2Mg3BevMmO7YCp2QXU-15" value="&lt;div style=&quot;line-height: 100%;&quot;&gt;&lt;div&gt;&lt;b&gt;&lt;font style=&quot;font-size: 8px; line-height: 100%;&quot;&gt;book_id&lt;/font&gt;&lt;/b&gt;&lt;/div&gt;&lt;div&gt;&lt;b&gt;&lt;font style=&quot;font-size: 8px; line-height: 100%;&quot;&gt;title&lt;/font&gt;&lt;/b&gt;&lt;/div&gt;&lt;div&gt;&lt;b&gt;&lt;font style=&quot;font-size: 8px; line-height: 100%;&quot;&gt;author&lt;/font&gt;&lt;/b&gt;&lt;/div&gt;&lt;div&gt;&lt;b&gt;&lt;font style=&quot;font-size: 8px; line-height: 100%;&quot;&gt;publisher&lt;/font&gt;&lt;/b&gt;&lt;/div&gt;&lt;div&gt;&lt;b&gt;&lt;font style=&quot;font-size: 8px; line-height: 100%;&quot;&gt;year_published&lt;/font&gt;&lt;/b&gt;&lt;/div&gt;&lt;div&gt;&lt;/div&gt;&lt;/div&gt;" style="text;html=1;align=center;verticalAlign=middle;whiteSpace=wrap;rounded=0;fillColor=#008a00;fontColor=#ffffff;strokeColor=#005700;" vertex="1" parent="1">
          <mxGeometry x="180" y="280" width="80" height="60" as="geometry" />
        </mxCell>
        <mxCell id="T-2Mg3BevMmO7YCp2QXU-17" value="&lt;div style=&quot;line-height: 100%;&quot;&gt;&lt;div&gt;&lt;span style=&quot;font-size: 8px;&quot;&gt;&lt;b&gt;author_id&lt;/b&gt;&lt;/span&gt;&lt;/div&gt;&lt;div&gt;&lt;span style=&quot;font-size: 8px;&quot;&gt;&lt;b&gt;affiliation&lt;/b&gt;&lt;/span&gt;&lt;/div&gt;&lt;div&gt;&lt;/div&gt;&lt;/div&gt;" style="text;html=1;align=center;verticalAlign=middle;whiteSpace=wrap;rounded=0;fillColor=#d80073;fontColor=#ffffff;strokeColor=#A50040;" vertex="1" parent="1">
          <mxGeometry x="380" y="280" width="80" height="30" as="geometry" />
        </mxCell>
        <mxCell id="T-2Mg3BevMmO7YCp2QXU-18" value="borrowed_books" style="html=1;whiteSpace=wrap;fillColor=#a20025;fontColor=#ffffff;strokeColor=#6F0000;" vertex="1" parent="1">
          <mxGeometry x="120" y="360" width="120" height="50" as="geometry" />
        </mxCell>
        <mxCell id="T-2Mg3BevMmO7YCp2QXU-20" value="&lt;div style=&quot;line-height: 100%;&quot;&gt;&lt;div&gt;&lt;span style=&quot;font-size: 8px;&quot;&gt;&lt;b&gt;book_id&lt;/b&gt;&lt;/span&gt;&lt;/div&gt;&lt;div&gt;&lt;/div&gt;&lt;/div&gt;" style="text;html=1;align=center;verticalAlign=middle;whiteSpace=wrap;rounded=0;fillColor=#a20025;fontColor=#ffffff;strokeColor=#6F0000;" vertex="1" parent="1">
          <mxGeometry x="40" y="320" width="80" height="20" as="geometry" />
        </mxCell>
      </root>
    </mxGraphModel>
  </diagram>
</mxfile>
